<svg xmlns="http://www.w3.org/2000/svg" width="767.519" height="281.708" viewBox="0 0 767.519 281.708"><defs><style>.a{opacity:0;}.b{fill:#b2b2b2;}.c,.e,.k{fill:#ef505c;}.d{fill:#fff;}.e,.j{opacity:0.4;}.f,.i{fill:#fafafa;}.f{opacity:0.6;}.g{fill:#263238;}.h,.k{opacity:0.2;}.l{opacity:0.3;}.m{fill:#ffb573;}.n{fill:#ed893e;}</style></defs><g class="a" transform="translate(-56.11 -45.305)"><g transform="translate(56.11 310.328)"><ellipse class="b" cx="383.76" cy="8.342" rx="383.76" ry="8.342"/></g><g transform="translate(70.223 45.305)"><circle class="c" cx="24.762" cy="24.762" r="24.762" transform="matrix(0.149, -0.989, 0.989, 0.149, 91.798, 81.829)"/><path class="d" d="M250.029,127.664a20.437,20.437,0,1,1-12.425-26.1A20.438,20.438,0,0,1,250.029,127.664Z" transform="translate(-110.787 -59.793)"/><path class="e" d="M244.52,144.084a20.436,20.436,0,0,1-33.9-12.02A32.353,32.353,0,0,1,244.52,144.084Z" transform="translate(-110.865 -67.864)"/><path class="e" d="M246.57,118.982a9.094,9.094,0,1,1-.354-6.963A9.1,9.1,0,0,1,246.57,118.982Z" transform="translate(-115.67 -61.488)"/><circle class="c" cx="20.893" cy="20.893" r="20.893" transform="translate(7.766 45.647) rotate(-0.17)"/><circle class="f" cx="20.893" cy="20.893" r="20.893" transform="translate(7.766 45.647) rotate(-0.17)"/><path class="d" d="M124.235,123.354a17.241,17.241,0,1,1-22.161-10.17,17.241,17.241,0,0,1,22.161,10.17Z" transform="translate(-79.354 -62.876)"/><path class="g" d="M127.245,138.536A17.245,17.245,0,0,1,98.82,149.082a27.312,27.312,0,0,1,28.425-10.546Z" transform="translate(-81.457 -69.634)"/><path class="g" d="M115.908,122.59a7.672,7.672,0,1,1-4-4.316,7.679,7.679,0,0,1,4,4.316Z" transform="translate(-82.037 -64.315)"/><circle class="g" cx="23.841" cy="23.841" r="23.841" transform="translate(34.08 33.716) rotate(-45)"/><path class="d" d="M179.717,81.379A19.544,19.544,0,1,1,172.18,68.34a19.677,19.677,0,0,1,7.537,13.039Z" transform="translate(-92.431 -50.312)"/><path class="c" d="M179.976,99.376a19.67,19.67,0,0,1-34.276,4.65,31.166,31.166,0,0,1,34.276-4.65Z" transform="translate(-93.788 -58.699)"/><circle class="c" cx="8.763" cy="8.763" r="8.763" transform="translate(54.601 28.709) rotate(-52.73)"/><rect class="c" width="37.556" height="6.515" transform="translate(60.328 266.851)"/><rect class="h" width="1.503" height="6.515" transform="translate(62.185 266.851)"/><rect class="h" width="1.503" height="6.515" transform="translate(66.224 266.851)"/><rect class="h" width="1.503" height="6.515" transform="translate(70.27 266.851)"/><rect class="h" width="1.503" height="6.515" transform="translate(74.315 266.851)"/><rect class="h" width="1.503" height="6.515" transform="translate(78.354 266.851)"/><rect class="h" width="1.503" height="6.515" transform="translate(82.4 266.851)"/><rect class="h" width="1.503" height="6.515" transform="translate(86.439 266.851)"/><rect class="h" width="1.503" height="6.515" transform="translate(90.484 266.851)"/><rect class="h" width="1.503" height="6.515" transform="translate(94.53 266.851)"/><rect class="c" width="37.556" height="6.515" transform="translate(59.001 260.336)"/><rect class="h" width="1.503" height="6.515" transform="translate(60.859 260.336)"/><rect class="h" width="1.503" height="6.515" transform="translate(64.897 260.336)"/><rect class="h" width="1.503" height="6.515" transform="translate(68.943 260.336)"/><rect class="h" width="1.503" height="6.515" transform="translate(72.989 260.336)"/><rect class="h" width="1.503" height="6.515" transform="translate(77.028 260.336)"/><rect class="h" width="1.503" height="6.515" transform="translate(81.073 260.336)"/><rect class="h" width="1.503" height="6.515" transform="translate(85.119 260.336)"/><rect class="h" width="1.503" height="6.515" transform="translate(89.158 260.336)"/><rect class="h" width="1.503" height="6.515" transform="translate(93.204 260.336)"/><rect class="c" width="37.556" height="6.515" transform="translate(60.055 253.821)"/><rect class="h" width="1.503" height="6.515" transform="translate(61.912 253.821)"/><rect class="h" width="1.503" height="6.515" transform="translate(65.958 253.821)"/><rect class="h" width="1.503" height="6.515" transform="translate(69.997 253.821)"/><rect class="h" width="1.503" height="6.515" transform="translate(74.043 253.821)"/><rect class="h" width="1.503" height="6.515" transform="translate(78.089 253.821)"/><rect class="h" width="1.503" height="6.515" transform="translate(82.127 253.821)"/><rect class="h" width="1.503" height="6.515" transform="translate(86.173 253.821)"/><rect class="h" width="1.503" height="6.515" transform="translate(90.212 253.821)"/><rect class="h" width="1.503" height="6.515" transform="translate(94.258 253.821)"/><circle class="c" cx="18.933" cy="18.933" r="18.933" transform="translate(54.314 217.624) rotate(-12.99)"/><path class="h" d="M187.595,362.607a15.9,15.9,0,1,1-5.056-21.91,15.9,15.9,0,0,1,5.056,21.91Z" transform="translate(-97.081 -122.368)"/><circle class="c" cx="15.624" cy="15.624" r="15.624" transform="translate(58.544 220.743) rotate(-12.99)"/><path class="i" d="M182.393,360.125l-2.344,3.759a1.209,1.209,0,0,1-.811.553,1.267,1.267,0,0,1-.98-.162l-3.3-2.063-1.651,2.646a1.282,1.282,0,0,1-1.761.405,1.268,1.268,0,0,1-.59-.811,1.179,1.179,0,0,1,.155-.965l1.666-2.675-3.272-2.049a1.245,1.245,0,0,1-.567-.789,1.282,1.282,0,0,1,.958-1.54,1.246,1.246,0,0,1,.965.162l7.664,4.79.973-1.562-7.635-4.776a1.223,1.223,0,0,1-.575-.789,1.209,1.209,0,0,1,.162-.973l2.344-3.736a1.223,1.223,0,0,1,.8-.575,1.275,1.275,0,0,1,.965.162l3.25,2.034,1.651-2.646a1.282,1.282,0,0,1,1.806-.383,1.223,1.223,0,0,1,.553.789,1.2,1.2,0,0,1-.162.965L181,352.541l3.324,2.086a1.268,1.268,0,0,1,.582.811,1.2,1.2,0,0,1-.147.965,1.231,1.231,0,0,1-.818.575,1.253,1.253,0,0,1-.965-.155l-7.664-4.79-.965,1.548,7.642,4.776a1.275,1.275,0,0,1,.575.811A1.187,1.187,0,0,1,182.393,360.125Z" transform="translate(-99.89 -124.904)"/><path class="j" d="M183.092,337.045a18.947,18.947,0,0,0-28.882,14.194H191.9A18.9,18.9,0,0,0,183.092,337.045Z" transform="translate(-96.027 -121.288)"/><path class="k" d="M222.111,133.67H84.681a6.272,6.272,0,0,0-5.159,9.838l15.344,22.161a6.286,6.286,0,0,0,5.159,2.7H206.767a6.272,6.272,0,0,0,5.159-2.7l15.344-22.175a6.272,6.272,0,0,0-5.159-9.824Z" transform="translate(-76.088 -68.548)"/><path class="c" d="M224.849,170.62H85.88l45.191,97.353h48.581Z" transform="translate(-78.053 -78.268)"/><rect class="c" width="0.737" height="10.929" transform="translate(22.755 130.657) rotate(-24.9)"/><rect class="c" width="0.737" height="5.115" transform="translate(28.718 143.515) rotate(-24.9)"/><path class="l" d="M224.849,170.62H85.88l45.191,97.353h48.581Z" transform="translate(-78.053 -78.268)"/><path class="h" d="M131.535,170.62H105.24l39.826,97.353h8.5Z" transform="translate(-83.146 -78.268)"/><rect class="c" width="154.622" height="18.726" rx="4.77" transform="translate(0 73.626)"/><path class="c" d="M188.647,338.028H154.341a4.879,4.879,0,0,1-4.864-4.518L147.2,302.72h48.581l-2.3,30.79A4.871,4.871,0,0,1,188.647,338.028Z" transform="translate(-94.183 -113.014)"/><path class="h" d="M188.647,338.028H154.341a4.879,4.879,0,0,1-4.864-4.518L147.2,302.72h48.581l-2.3,30.79A4.871,4.871,0,0,1,188.647,338.028Z" transform="translate(-94.183 -113.014)"/></g><g transform="translate(697.004 108.003)"><path class="m" d="M328.664,402.893h-6.036l-.4-13.973h6.036Z" transform="translate(-285.264 -198.386)"/><path class="h" d="M322.23,388.92l.206,7.207h6.036l-.206-7.207Z" transform="translate(-285.264 -198.386)"/><path class="m" d="M389.365,374.085,384.081,377l-8.431-11.312,5.284-2.9Z" transform="translate(-299.315 -191.51)"/><path class="h" d="M380.941,362.78l-5.291,2.911L380,371.513l5.291-2.9Z" transform="translate(-299.315 -191.51)"/><path class="g" d="M350.822,163.794c-5.395-3.685-7.834-7.48-8.306-12.057.906,4.849,3.8,8.7,10.273,11.946a.339.339,0,0,0,.17.044.368.368,0,0,0,.162-.7c-9.1-4.569-10.863-10.163-10.03-18.49.236-1.1.531-2.211.884-3.42,2.948-10.067-13.472-12.086-18.608-9.993-12.624,5.159-8.748,19.493-5.159,24.895s-8.416,9.028-1.71,24.482,29.014,15.071,35.374,7.038S359.858,170.022,350.822,163.794Z" transform="translate(-283.736 -130.381)"/><path class="m" d="M308.8,184.012c-.074,1.01-.155,1.887-.28,2.808s-.258,1.813-.405,2.712c-.295,1.806-.737,3.589-1.128,5.365a58.5,58.5,0,0,1-3.589,10.443l-.287.634c-.111.221-.155.354-.383.789a5.431,5.431,0,0,1-1.82,1.938,5.667,5.667,0,0,1-2.307.818,7.907,7.907,0,0,1-1.96,0,17.223,17.223,0,0,1-5.778-2.012,47.9,47.9,0,0,1-8.969-6.338l1.82-2.454c1.474.833,3,1.68,4.518,2.447a44.079,44.079,0,0,0,4.584,2.063,14.083,14.083,0,0,0,4.267,1.076c.575,0,.921-.162.818-.162s-.081.052-.074,0l.376-.995a68.445,68.445,0,0,0,2.837-9.639c.368-1.651.663-3.324.943-4.989s.5-3.39.663-4.945Z" transform="translate(-274.653 -144.372)"/><path class="c" d="M311.208,174.012c-2.491.619-4.208,10.863-4.208,10.863l6.854,4.658s6.574-10.318,4.658-13.052C316.5,173.628,314.834,173.083,311.208,174.012Z" transform="translate(-281.258 -141.748)"/><path class="h" d="M311.208,174.012c-2.491.619-4.208,10.863-4.208,10.863l6.854,4.658s6.574-10.318,4.658-13.052C316.5,173.628,314.834,173.083,311.208,174.012Z" transform="translate(-281.258 -141.748)"/><path class="h" d="M312.329,177.26l-1.909,10.31,3.847,2.616Z" transform="translate(-282.157 -142.712)"/><path class="m" d="M283.683,202.618,280,196.84l-2.078,5.77s2.557,2.948,5,2.336Z" transform="translate(-273.609 -147.862)"/><path class="m" d="M274.524,193.9l-2.454,4.518,4.3,3.419,2.078-5.77Z" transform="translate(-272.07 -147.089)"/><path class="g" d="M384.078,379.6l5.395-4.1a.472.472,0,0,1,.626.037l3.869,3.8a.973.973,0,0,1-.118,1.437c-1.909,1.4-2.9,1.982-5.269,3.788-1.474,1.113-3.471,2.889-5.49,4.422s-3.633-.376-2.948-1.194c3.139-3.685,2.889-5.24,3.346-7.274a1.584,1.584,0,0,1,.59-.906Z" transform="translate(-300.455 -194.828)"/><path class="g" d="M318.452,406.93h6.78a.479.479,0,0,1,.486.413l.737,5.365a.965.965,0,0,1-.965,1.069c-2.366-.037-3.5-.177-6.485-.177-1.828,0-7.1.192-9.632.192s-2.668-2.506-1.614-2.734c4.731-1.017,8.062-2.417,9.662-3.759A1.6,1.6,0,0,1,318.452,406.93Z" transform="translate(-281.294 -203.123)"/><path class="c" d="M312.454,173.537s-2.874,1.01,2.882,36.413h24.5c-.413-9.971-.42-16.125,4.341-36.59a71.639,71.639,0,0,0-10.406-1.371,77.707,77.707,0,0,0-11.121,0C317.871,172.424,312.454,173.537,312.454,173.537Z" transform="translate(-282.504 -141.273)"/><path class="h" d="M312.454,173.537s-2.874,1.01,2.882,36.413h24.5c-.413-9.971-.42-16.125,4.341-36.59a71.639,71.639,0,0,0-10.406-1.371,77.707,77.707,0,0,0-11.121,0C317.871,172.424,312.454,173.537,312.454,173.537Z" transform="translate(-282.504 -141.273)"/><path class="d" d="M336.13,171.989a77.707,77.707,0,0,0-11.121,0c-1.341.118-2.727.295-4.024.479h0c-.575,2.152-.457,5.159,1.732,9.094l1.268,2.262,2.41-.965c1.783-.737,10.811-4.532,13.708-9.234l.737-1.216C339.394,172.225,337.78,172.07,336.13,171.989Z" transform="translate(-284.859 -141.273)"/><path class="m" d="M337.178,167.588h0c-2.5-2.388-1.8-8.954-1.1-12.528l-6.832,5.852c.693,2.786.8,5.741-3.191,6.7h0l-.737.074c-.892,1.68-1.113,4.274,1.017,8.107,0,0,9.757-3.935,12.3-8.048A9.313,9.313,0,0,0,337.178,167.588Z" transform="translate(-285.907 -136.872)"/><path class="h" d="M334.926,158.29l-4.046,3.471a11,11,0,0,1,.346,1.975c1.525-.221,3.618-1.894,3.781-3.493a5.284,5.284,0,0,0-.081-1.953Z" transform="translate(-287.539 -137.722)"/><path class="m" d="M339.778,143.483c-1.791,5.719-2.425,8.173-6.087,10.428-5.513,3.4-12.145-.052-12.1-6.183.037-5.52,2.948-13.943,9.2-14.85a8.173,8.173,0,0,1,8.984,10.6Z" transform="translate(-285.095 -131.014)"/><path class="g" d="M342.1,134.666a11.18,11.18,0,0,0-7.163-2.948,2.483,2.483,0,0,0-1.319-.6c-2.778-.567-5.9.184-7.318,1.946-1.275,1.607,3.066,2.55,6.183,1.275.45,4.923,4.606,15.049,8.571,14.135C346.233,147.29,346.278,138.535,342.1,134.666Z" transform="translate(-286.274 -130.525)"/><path class="g" d="M315.054,223.565s-4.761,46.48-4.363,64.853c.413,19.161,7.421,62.782,7.421,62.782h8.158s-1.29-42.53-.567-61.323c.789-20.495,7.3-66.327,7.3-66.327Z" transform="translate(-282.223 -154.888)"/><path class="c" d="M329.133,395.977H319.56l-.7-3.051,10.723-.376Z" transform="translate(-284.377 -199.341)"/><path class="h" d="M329.957,238.235c-6.021,12.108-1.209,34.2.921,42.412,1.091-12.337,2.948-27.43,4.363-38.506C334.305,235.876,332.706,232.656,329.957,238.235Z" transform="translate(-286.528 -157.995)"/><path class="g" d="M325.4,223.57s5.549,48.323,9.743,63.836c4.974,18.424,29.692,46.974,29.692,46.974l7.207-3.965s-17.142-32.058-20.952-41.764c-8.107-20.709-1.164-51.588-7.657-65.081Z" transform="translate(-286.098 -154.893)"/><path class="c" d="M386.015,367.146l-8.947,4.916-2.5-2.285,10.259-6.257Z" transform="translate(-299.031 -191.705)"/><path class="g" d="M332.79,145.942c-.111.472-.457.789-.737.737s-.464-.523-.346-.995.457-.8.737-.737S332.908,145.463,332.79,145.942Z" transform="translate(-287.747 -134.211)"/><path class="g" d="M325.586,144.155c-.118.472-.464.8-.774.737s-.464-.516-.346-.988.457-.8.737-.737S325.66,143.683,325.586,144.155Z" transform="translate(-285.842 -133.742)"/><path class="g" d="M325.274,143.024l-1.054-.6S324.581,143.452,325.274,143.024Z" transform="translate(-285.787 -133.548)"/><path class="n" d="M327.032,146.22a12.877,12.877,0,0,1-2.432,2.594,2.1,2.1,0,0,0,1.607.737Z" transform="translate(-285.887 -134.547)"/><path class="g" d="M329.358,153.689a5.054,5.054,0,0,1-.737-.118.144.144,0,0,1,.066-.28,3.854,3.854,0,0,0,3.412-.737.133.133,0,0,1,.2,0,.14.14,0,0,1,0,.2A4.009,4.009,0,0,1,329.358,153.689Z" transform="translate(-286.916 -136.201)"/><path class="m" d="M344.987,153.921a4.378,4.378,0,0,1-2.8,1.828c-1.511.265-2.122-1.12-1.577-2.469.486-1.216,1.857-2.815,3.316-2.476a1.968,1.968,0,0,1,1.061,3.117Z" transform="translate(-290.047 -135.741)"/><path class="g" d="M335.642,144.567a.287.287,0,0,1-.258-.221,3.376,3.376,0,0,0-1.879-1.953.287.287,0,0,1-.162-.376.3.3,0,0,1,.376-.155,3.779,3.779,0,0,1,2.211,2.351.287.287,0,0,1-.214.346Z" transform="translate(-288.181 -133.396)"/><path class="g" d="M324.5,140.322a.31.31,0,0,1-.229-.162.287.287,0,0,1,.133-.383,2.83,2.83,0,0,1,2.609,0,.287.287,0,0,1,.1.391.28.28,0,0,1-.391.1h0a2.27,2.27,0,0,0-2.064,0,.383.383,0,0,1-.155.059Z" transform="translate(-285.793 -132.768)"/><path class="m" d="M351.686,183.45c.737,3.685,1.282,7.259,1.7,10.929.221,1.828.383,3.685.509,5.527.066.921.1,1.857.14,2.793l.037,1.408v1.1a3.884,3.884,0,0,1-1.017,2.211,4.179,4.179,0,0,1-1.562,1.024,5.359,5.359,0,0,1-1.194.317,9.19,9.19,0,0,1-1.857.088,22.351,22.351,0,0,1-3.066-.376,50.98,50.98,0,0,1-5.505-1.43c-1.769-.567-3.508-1.179-5.232-1.82s-3.412-1.356-5.1-2.137l1.024-2.874c1.724.42,3.478.862,5.225,1.253s3.486.8,5.218,1.135,3.464.641,5.159.811a16.394,16.394,0,0,0,2.344.111,3.684,3.684,0,0,0,.848-.1c.1,0,.133-.052.111-.044a.98.98,0,0,0-.427.287,1.783,1.783,0,0,0-.464.988.559.559,0,0,0,0,.192s0-.088,0-.125v-.324l-.118-1.3-.287-2.624q-.321-2.631-.737-5.277c-.28-1.761-.545-3.523-.84-5.284s-.6-3.53-.892-5.255Z" transform="translate(-287.187 -144.34)"/><path class="c" d="M353.351,173.872c2.461.737,5.409,9.2,5.409,9.2l-9.529,6.81s-3.471-7.053-2.439-10.229C347.868,176.348,350.58,173.017,353.351,173.872Z" transform="translate(-291.674 -141.785)"/><path class="h" d="M353.351,173.872c2.461.737,5.409,9.2,5.409,9.2l-9.529,6.81s-3.471-7.053-2.439-10.229C347.868,176.348,350.58,173.017,353.351,173.872Z" transform="translate(-291.674 -141.785)"/><path class="c" d="M382.5,383.9h-.074a.825.825,0,0,1-.649-.464.516.516,0,0,1,0-.494c.368-.678,2.543-.848,2.793-.862a.125.125,0,0,1,.133.074.147.147,0,0,1,0,.162C384.173,382.912,383.251,383.9,382.5,383.9Zm1.717-1.474c-.862.088-2.012.324-2.211.685a.192.192,0,0,0,0,.214.523.523,0,0,0,.42.317c.435.007,1.083-.442,1.791-1.245Z" transform="translate(-300.91 -196.586)"/><path class="c" d="M384.417,381.858c-.737,0-2.122-.354-2.4-.914a.5.5,0,0,1,.14-.612.737.737,0,0,1,.6-.214c.877.066,1.931,1.474,1.975,1.474a.155.155,0,0,1,0,.147.14.14,0,0,1-.111.081A1.109,1.109,0,0,1,384.417,381.858Zm-1.724-1.474a.479.479,0,0,0-.332.14c-.133.125-.111.214-.081.28.184.376,1.319.737,2.056.737-.376-.442-1.076-1.135-1.6-1.172Z" transform="translate(-300.978 -196.07)"/><path class="c" d="M318.8,407.815a2.248,2.248,0,0,1-1.474-.368.781.781,0,0,1-.258-.7.449.449,0,0,1,.236-.376c.737-.405,3.147.818,3.419.965a.143.143,0,0,1-.037.265,10.254,10.254,0,0,1-1.887.214Zm-1.047-1.245a.545.545,0,0,0-.265.052.177.177,0,0,0-.1.155.531.531,0,0,0,.162.457c.368.332,1.363.383,2.7.162a7.687,7.687,0,0,0-2.5-.825Z" transform="translate(-283.904 -202.955)"/><path class="c" d="M321.253,407.1h-.059c-.737-.332-2.145-1.629-2.027-2.314,0-.162.14-.361.531-.405a1.061,1.061,0,0,1,.8.251,4.139,4.139,0,0,1,.9,2.321.133.133,0,0,1-.059.133A.148.148,0,0,1,321.253,407.1Zm-1.474-2.447h-.088c-.258,0-.273.133-.28.162-.066.413.9,1.437,1.629,1.879a3.3,3.3,0,0,0-.737-1.857A.737.737,0,0,0,319.779,404.651Z" transform="translate(-284.456 -202.451)"/><path class="g" d="M332.524,144.784l-1.054-.6S331.861,145.226,332.524,144.784Z" transform="translate(-287.694 -134.011)"/><path class="c" d="M341.222,221.556l.626,2.211c.081.177-.118.346-.4.346H316.224c-.221,0-.4-.111-.413-.243l-.221-2.211c0-.155.177-.28.413-.28h24.821a.45.45,0,0,1,.4.177Z" transform="translate(-283.517 -154.316)"/><path class="g" d="M345.645,224.254h.663c.133,0,.228-.066.221-.147l-.31-2.852c0-.081-.125-.155-.258-.155H345.3c-.133,0-.236.074-.228.155l.317,2.852C345.394,224.188,345.512,224.254,345.645,224.254Z" transform="translate(-291.271 -154.243)"/><path class="g" d="M318.8,224.254h.663c.133,0,.236-.066.221-.147l-.31-2.852c0-.081-.125-.155-.258-.155h-.663c-.133,0-.236.074-.221.155l.31,2.852C318.539,224.188,318.657,224.254,318.8,224.254Z" transform="translate(-284.211 -154.243)"/><path class="g" d="M332.23,224.254h.663c.133,0,.236-.066.221-.147l-.31-2.852c0-.081-.125-.155-.258-.155h-.626c-.133,0-.236.074-.221.155l.31,2.852C331.98,224.188,332.1,224.254,332.23,224.254Z" transform="translate(-287.754 -154.243)"/><circle class="c" cx="19.846" cy="19.846" r="19.846" transform="translate(1.371 37.312)"/><circle class="j" cx="19.846" cy="19.846" r="19.846" transform="translate(1.371 37.312)"/><path class="c" d="M278.785,199.939a16.169,16.169,0,0,0,.914,8,16.375,16.375,0,1,0-.914-8Z" transform="translate(-273.796 -144.947)"/><path class="d" d="M280.08,214.863a16.375,16.375,0,0,0,28.535,3.876A25.926,25.926,0,0,0,280.08,214.863Z" transform="translate(-274.177 -151.913)"/><circle class="d" cx="7.296" cy="7.296" r="7.296" transform="matrix(0.332, -0.943, 0.943, 0.332, 12.668, 56.064)"/><path class="m" d="M330.024,204.7l-4.562-4.65-.582,6.109s3.206,2.211,5.431,1.017Z" transform="translate(-285.961 -148.706)"/><path class="m" d="M318.766,199.15l-.206,5.144,4.658,1.629.582-6.109Z" transform="translate(-284.299 -148.47)"/></g></g></svg>