<svg xmlns="http://www.w3.org/2000/svg" xmlns:xlink="http://www.w3.org/1999/xlink" width="375" height="812" viewBox="0 0 375 812"><defs><style>.a{fill:#fff;stroke:#707070;}.b{opacity:0.07;clip-path:url(#a);}.c{fill:#ef505c;}.d,.e{fill:#5b5b5b;}.d{fill-rule:evenodd;}</style><clipPath id="a"><rect class="a" width="375" height="812" transform="translate(-1451 -1074)"/></clipPath></defs><g class="b" transform="translate(1451 1074)"><g transform="translate(-1491.891 -1148.856)"><path class="c" d="M309.791,376.752a302.183,302.183,0,0,1-25.645-22.085c-37.639-36.16-62.824-87.851-86.39-135.635-23.209-47.059-47.176-91.2-78.144-133.91a640.013,640.013,0,0,0-57-68.748C39.989-7.057,16.878-25.814-5.69-38.812q-7.6-4.378-15.112-7.873c-11.963-5.564-21.6-8.665-31.131-9.433-7.6-.611-14.4.688-21.1,2.3l-8.53,2.058C-34.817-51.277,24.472-8.042,64.3,58.107c22.6,37.537,37.79,81.406,42.721,119.8,5.533,43.071,7.246,89.162,34.57,134.81,13.882,23.191,32.4,44.508,51.419,59.354,60.714,47.383,120.63,61.13,169.668,48.283,8.565-2.242,16.655-7.466,26.056-7.852C363.9,410.37,336.284,397.012,309.791,376.752Z" transform="translate(4.473 0)"/><path class="d" d="M115.434,44.947a198.863,198.863,0,0,1,28.9,30.787,165,165,0,0,1,20.878,36.189c18.284,44.464,27.125,89.245,53.4,133.585,46.02,77.674,125.549,134.8,207.307,151.565,0,0-100.3-52.136-188.394-193.5-22.413-35.964-37.438-74.141-64.756-108.842a223.138,223.138,0,0,0-25.191-27.19c-9.685-8.8-21-15.979-32.144-22.593" transform="translate(25.705 10.909)"/><path class="e" d="M99.155,163.468a406.2,406.2,0,0,0,2.85,50.786c4.282,37.051,21.567,75.961,43.722,109.075,44.8,66.97,119.137,105.54,168.6,168.286,54.9,69.637,42.73,167.568-6.958,236.31a238.928,238.928,0,0,1-194.031,99.248c-119.564,0-218.639-87.7-236.409-202.285a171.445,171.445,0,0,0,334.118,12.544c25.889-97.222-50.5-170.07-85.022-253.017C99.165,319.885,78.58,238,99.155,163.468" transform="translate(0 23.683)"/></g></g></svg>